<?xml version="1.0" encoding="UTF-8" standalone="no"?>
<!-- Generator: Adobe Illustrator 24.3.0, SVG Export Plug-In . SVG Version: 6.00 Build 0)  -->

<svg
   xmlns:dc="http://purl.org/dc/elements/1.1/"
   xmlns:cc="http://creativecommons.org/ns#"
   xmlns:rdf="http://www.w3.org/1999/02/22-rdf-syntax-ns#"
   xmlns:svg="http://www.w3.org/2000/svg"
   xmlns="http://www.w3.org/2000/svg"
   xmlns:sodipodi="http://sodipodi.sourceforge.net/DTD/sodipodi-0.dtd"
   xmlns:inkscape="http://www.inkscape.org/namespaces/inkscape"
   version="1.1"
   id="Capa_1"
   x="0px"
   y="0px"
   viewBox="0 0 300 200"
   style="enable-background:new 0 0 300 200;"
   xml:space="preserve"
   sodipodi:docname="report.svg"
   inkscape:version="0.92.5 (2060ec1f9f, 2020-04-08)"><metadata
   id="metadata1144"><rdf:RDF><cc:Work
       rdf:about=""><dc:format>image/svg+xml</dc:format><dc:type
         rdf:resource="http://purl.org/dc/dcmitype/StillImage" /><dc:title></dc:title></cc:Work></rdf:RDF></metadata><defs
   id="defs1142" /><sodipodi:namedview
   pagecolor="#ffffff"
   bordercolor="#666666"
   borderopacity="1"
   objecttolerance="10"
   gridtolerance="10"
   guidetolerance="10"
   inkscape:pageopacity="0"
   inkscape:pageshadow="2"
   inkscape:window-width="1920"
   inkscape:window-height="1027"
   id="namedview1140"
   showgrid="false"
   inkscape:zoom="3.0087394"
   inkscape:cx="83.202756"
   inkscape:cy="50.89218"
   inkscape:window-x="0"
   inkscape:window-y="27"
   inkscape:window-maximized="1"
   inkscape:current-layer="g2124" />
<style
   type="text/css"
   id="style1039">
	.st0{fill:#5F7993;}
	.st1{fill:#17B5C8;}
	.st2{fill:#11828F;}
	.st3{fill:#405162;}
	.st4{fill:#A6D100;}
	.st5{fill:#89AB00;}
	.st6{fill:#FFFFFF;}
	.st7{fill:none;stroke:#17B5C8;stroke-width:2;stroke-miterlimit:10;}
</style>

<path
   style="opacity:1;fill:#ffffff;fill-opacity:1;fill-rule:nonzero;stroke:none;stroke-width:1.88976383;stroke-linecap:round;stroke-linejoin:round;stroke-miterlimit:4;stroke-dasharray:none;stroke-dashoffset:0;stroke-opacity:1"
   d="m 23.5474,19.393752 87.29319,-0.154398 -0.0579,21.210098 c -0.0222,8.12082 5.71193,13.393334 13.8296,13.166429 l 20.62568,-0.576527 -0.23315,121.467766 c -0.0156,8.12084 -6.53772,14.65857 -14.65857,14.65857 H 23.5474 c -8.12084,0 -14.6489503,-6.53773 -14.6585603,-14.65857 l -0.24869,-100.89909 0.0829,-39.224127 C 8.7402497,26.263076 15.42657,19.408116 23.54741,19.393752 Z"
   id="rect2590-7"
   inkscape:connector-curvature="0"
   sodipodi:nodetypes="ccsscsssscssc" /><path
   style="fill:#5f7993"
   inkscape:connector-curvature="0"
   id="path2438"
   d="m 145.1224,52.244587 h -20.1 c -7.6,0 -13.8,-6.2 -13.8,-13.8 v -20"
   class="st0" /><path
   style="fill:#405162"
   inkscape:connector-curvature="0"
   id="path2438-3"
   d="m 136.82485,52.50488 -11.64456,-0.165793 c -7.59923,-0.108196 -14.61024,-6.243316 -13.8,-13.800003 l 0.82896,-7.731324 c 4.06314,10.585475 11.28986,18.60995 24.6156,21.69712 z"
   class="st0"
   sodipodi:nodetypes="csscc" /><path
   inkscape:connector-curvature="0"
   id="path2446"
   d="m 28.02765,51.439345 h 44.2 c 0.5,0 1,-0.4 1,-1 0,-0.5 -0.4,-1 -1,-1 h -44.2 c -0.5,0 -0.99999,0.4 -0.99999,1 0,0.6 0.49999,1 0.99999,1 z" /><path
   inkscape:connector-curvature="0"
   id="path2452"
   d="m 28.02765,71.939345 h 22.6 c 0.5,0 1,-0.4 1,-1 0,-0.5 -0.4,-1 -1,-1 h -22.6 c -0.5,0 -0.99999,0.4 -0.99999,1 0,0.6 0.49999,1 0.99999,1 z" /><path
   inkscape:connector-curvature="0"
   id="path2454"
   d="m 50.62765,150.73934 h -22.6 c -0.5,0 -0.99999,0.4 -0.99999,1 0,0.6 0.39999,1 0.99999,1 h 22.6 c 0.5,0 1,-0.4 1,-1 0,-0.6 -0.5,-1 -1,-1 z" /><path
   inkscape:connector-curvature="0"
   id="path2456"
   d="m 97.82765,150.73934 h -35.3 c -0.5,0 -1,0.4 -1,1 0,0.6 0.4,1 1,1 h 35.3 c 0.5,0 1,-0.4 1,-1 0,-0.6 -0.5,-1 -1,-1 z" /><path
   inkscape:connector-curvature="0"
   id="path2458"
   d="m 125.42766,150.73934 h -15.1 c -0.5,0 -1,0.4 -1,1 0,0.6 0.4,1 1,1 h 15.1 c 0.5,0 1,-0.4 1,-1 0,-0.6 -0.5,-1 -1,-1 z" /><path
   inkscape:connector-curvature="0"
   id="path2512"
   d="m 100.92765,69.939345 h -38.7 c -0.5,0 -1,0.4 -1,1 0,0.5 0.4,1 1,1 h 37.7 c 0.3,-0.6 0.6,-1.3 1,-2 z" /><path
   style="opacity:1;fill:none;fill-opacity:1;fill-rule:nonzero;stroke:#000000;stroke-width:1.88976383;stroke-linecap:round;stroke-linejoin:round;stroke-miterlimit:4;stroke-dasharray:none;stroke-dashoffset:0;stroke-opacity:1"
   d="m 9.0219597,60.876173 0.0829,-27.287037 C 9.1295597,25.468328 15.80838,18.613349 23.92921,18.598985 v 0 l 87.29319,-0.154398 -0.0579,21.210098 c -0.0222,8.12082 5.71193,13.393334 13.8296,13.166429 l 20.62568,-0.576527 -0.11658,60.733883 -0.0291,10.37547 m -0.16579,9.78178 0.13669,6.39645 m 0,7.95806 -0.0291,11.03865 -0.0291,15.18347 c -0.0156,8.12084 -6.53772,14.65857 -14.65857,14.65857 H 23.92921 c -8.12085,0 -14.6489603,-6.53773 -14.6585703,-14.65857 L 9.0219597,72.813263"
   id="rect2590"
   inkscape:connector-curvature="0"
   sodipodi:nodetypes="cssccsscccccccssssc" /><path
   style="fill:none;stroke:#000000;stroke-width:1.88976383;stroke-linecap:butt;stroke-linejoin:miter;stroke-miterlimit:4;stroke-dasharray:none;stroke-opacity:1"
   d="m 111.2224,18.444587 c 34.39738,33.8 34.39738,33.8 34.39738,33.8 v 0 0"
   id="path2595"
   inkscape:connector-curvature="0" /><path
   style="fill:none;stroke:#17b5c8;stroke-width:2.13543296;stroke-linecap:butt;stroke-linejoin:miter;stroke-miterlimit:4;stroke-dasharray:none;stroke-opacity:1"
   d="M 33.842538,86.486487 V 134.43009 H 113.74853"
   id="path1913"
   inkscape:connector-curvature="0" /><path
   style="fill:none;stroke:#a6d100;stroke-width:1.20960426px;stroke-linecap:round;stroke-linejoin:bevel;stroke-opacity:1"
   d="m 36.753616,113.03633 3.916997,8.97477 8.617396,-13.61689 6.528329,7.73687 7.833996,-4.33265 8.617395,16.71164 17.234791,-37.755928 8.356262,37.136988 14.623458,-8.97477"
   id="path1915"
   inkscape:connector-curvature="0" /><path
   style="opacity:1;fill:#ffffff;fill-opacity:1;fill-rule:nonzero;stroke:none;stroke-width:1.88976383;stroke-linecap:round;stroke-linejoin:round;stroke-miterlimit:4;stroke-dasharray:none;stroke-dashoffset:0;stroke-opacity:1"
   d="m 118.36475,8.186586 87.29319,-0.154398 -0.0579,21.210098 c -0.0222,8.12082 5.71193,13.393334 13.8296,13.166429 l 20.62568,-0.576527 -0.23315,121.467762 c -0.0156,8.12084 -6.53772,14.65857 -14.65857,14.65857 H 118.36475 c -8.12084,0 -14.64895,-6.53773 -14.65856,-14.65857 L 103.4575,62.400864 103.5404,23.176737 C 103.5576,15.05591 110.24392,8.20095 118.36476,8.186586 Z"
   id="rect2590-7-3"
   inkscape:connector-curvature="0"
   sodipodi:nodetypes="ccsscsssscssc" /><path
   style="fill:#5f7993"
   inkscape:connector-curvature="0"
   id="path2438-6"
   d="m 239.93975,41.037421 h -20.1 c -7.6,0 -13.8,-6.2 -13.8,-13.8 v -20"
   class="st0" /><path
   style="fill:#405162"
   inkscape:connector-curvature="0"
   id="path2438-3-7"
   d="m 231.6422,41.297714 -11.64456,-0.165793 c -7.59923,-0.108196 -14.61024,-6.243316 -13.8,-13.800003 l 0.82896,-7.731324 c 4.06314,10.585475 11.28986,18.60995 24.6156,21.69712 z"
   class="st0"
   sodipodi:nodetypes="csscc" /><path
   inkscape:connector-curvature="0"
   id="path2446-5"
   d="m 122.845,40.232179 h 44.2 c 0.5,0 1,-0.4 1,-1 0,-0.5 -0.4,-1 -1,-1 h -44.2 c -0.5,0 -0.99999,0.4 -0.99999,1 0,0.6 0.49999,1 0.99999,1 z" /><path
   inkscape:connector-curvature="0"
   id="path2452-3"
   d="m 122.845,60.732179 h 22.6 c 0.5,0 1,-0.4 1,-1 0,-0.5 -0.4,-1 -1,-1 h -22.6 c -0.5,0 -0.99999,0.4 -0.99999,1 0,0.6 0.49999,1 0.99999,1 z" /><path
   inkscape:connector-curvature="0"
   id="path2454-5"
   d="m 145.445,139.53217 h -22.6 c -0.5,0 -0.99999,0.4 -0.99999,1 0,0.6 0.39999,1 0.99999,1 h 22.6 c 0.5,0 1,-0.4 1,-1 0,-0.6 -0.5,-1 -1,-1 z" /><path
   inkscape:connector-curvature="0"
   id="path2456-6"
   d="m 192.645,139.53217 h -35.3 c -0.5,0 -1,0.4 -1,1 0,0.6 0.4,1 1,1 h 35.3 c 0.5,0 1,-0.4 1,-1 0,-0.6 -0.5,-1 -1,-1 z" /><path
   inkscape:connector-curvature="0"
   id="path2458-2"
   d="m 220.24501,139.53217 h -15.1 c -0.5,0 -1,0.4 -1,1 0,0.6 0.4,1 1,1 h 15.1 c 0.5,0 1,-0.4 1,-1 0,-0.6 -0.5,-1 -1,-1 z" /><path
   inkscape:connector-curvature="0"
   id="path2512-9"
   d="m 195.745,58.732179 h -38.7 c -0.5,0 -1,0.4 -1,1 0,0.5 0.4,1 1,1 h 37.7 c 0.3,-0.6 0.6,-1.3 1,-2 z" /><path
   style="opacity:1;fill:none;fill-opacity:1;fill-rule:nonzero;stroke:#000000;stroke-width:1.88976383;stroke-linecap:round;stroke-linejoin:round;stroke-miterlimit:4;stroke-dasharray:none;stroke-dashoffset:0;stroke-opacity:1"
   d="m 103.83931,49.669007 0.0829,-27.287037 c 0.0247,-8.120808 6.70352,-14.975787 14.82435,-14.990151 v 0 l 87.29319,-0.154398 -0.0579,21.210098 c -0.0222,8.12082 5.71193,13.393334 13.8296,13.166429 l 20.62568,-0.576527 -0.11658,60.733879 -0.0291,10.37547 m -0.16579,9.78178 0.13669,6.39645 m 0,7.95806 -0.0291,11.03865 -0.0291,15.18347 c -0.0156,8.12084 -6.53772,14.65857 -14.65857,14.65857 H 118.74656 c -8.12085,0 -14.64896,-6.53773 -14.65857,-14.65857 L 103.83931,61.606097"
   id="rect2590-1"
   inkscape:connector-curvature="0"
   sodipodi:nodetypes="cssccsscccccccssssc" /><path
   style="fill:none;stroke:#000000;stroke-width:1.88976383;stroke-linecap:butt;stroke-linejoin:miter;stroke-miterlimit:4;stroke-dasharray:none;stroke-opacity:1"
   d="m 206.03975,7.237421 c 34.39738,33.8 34.39738,33.8 34.39738,33.8 v 0 0"
   id="path2595-2"
   inkscape:connector-curvature="0" /><path
   style="opacity:1;fill:none;fill-opacity:1;fill-rule:nonzero;stroke:#a6d100;stroke-width:2.13543296;stroke-linecap:round;stroke-linejoin:bevel;stroke-miterlimit:4;stroke-dasharray:none;stroke-dashoffset:0;stroke-opacity:1"
   id="path1968-9"
   r="23.384254"
   cy="103.76028"
   cx="167.92009"
   d=""
   inkscape:connector-curvature="0" /><path
   style="fill:none;stroke:#11778e;stroke-width:2.13543296;stroke-linecap:butt;stroke-linejoin:miter;stroke-miterlimit:4;stroke-dasharray:none;stroke-opacity:1"
   d="m 123.44808,78.197046 v 47.943604 h 79.90599"
   id="path1913-4"
   inkscape:connector-curvature="0" /><rect
   style="opacity:1;fill:#a6d100;fill-opacity:1;fill-rule:nonzero;stroke:#89ab00;stroke-width:2.13543296;stroke-linecap:square;stroke-linejoin:miter;stroke-miterlimit:4;stroke-dasharray:none;stroke-dashoffset:0;stroke-opacity:1"
   id="rect2257"
   width="7.0505238"
   height="38.777908"
   x="130.43478"
   y="85.076378" /><rect
   style="opacity:1;fill:#5f7993;fill-opacity:1;fill-rule:nonzero;stroke:#405162;stroke-width:2.13543296;stroke-linecap:square;stroke-linejoin:miter;stroke-miterlimit:4;stroke-dasharray:none;stroke-dashoffset:0;stroke-opacity:1"
   id="rect2257-4"
   width="7.0505219"
   height="16.921276"
   x="145.47411"
   y="107.13771" /><rect
   style="opacity:1;fill:#17b5c8;fill-opacity:1;fill-rule:nonzero;stroke:#11778e;stroke-width:2.13543296;stroke-linecap:square;stroke-linejoin:miter;stroke-miterlimit:4;stroke-dasharray:none;stroke-dashoffset:0;stroke-opacity:1"
   id="rect2257-3"
   width="6.8155041"
   height="24.676844"
   x="160.98708"
   y="99.059929" /><g
   transform="translate(58.769406,20.86999)"
   id="g2124"><path
     class="st0"
     d="m 145.1224,52.244587 h -20.1 c -7.6,0 -13.8,-6.2 -13.8,-13.8 v -20"
     id="path2438-0"
     inkscape:connector-curvature="0"
     style="fill:#5f7993" /><path
     sodipodi:nodetypes="csscc"
     class="st0"
     d="m 136.82485,52.50488 -11.64456,-0.165793 c -7.59923,-0.108196 -14.61024,-6.243316 -13.8,-13.800003 l 0.82896,-7.731324 c 4.06314,10.585475 11.28986,18.60995 24.6156,21.69712 z"
     id="path2438-3-6"
     inkscape:connector-curvature="0"
     style="fill:#405162" /><path
     d="m 125.42766,150.73934 h -15.1 c -0.5,0 -1,0.4 -1,1 0,0.6 0.4,1 1,1 h 15.1 c 0.5,0 1,-0.4 1,-1 0,-0.6 -0.5,-1 -1,-1 z"
     id="path2458-1"
     inkscape:connector-curvature="0" /><path
     inkscape:connector-curvature="0"
     id="path2595-5"
     d="m 111.2224,18.444587 c 34.39738,33.8 34.39738,33.8 34.39738,33.8 v 0 0"
     style="fill:none;stroke:#000000;stroke-width:1.88976383;stroke-linecap:butt;stroke-linejoin:miter;stroke-miterlimit:4;stroke-dasharray:none;stroke-opacity:1" /><path
     sodipodi:nodetypes="ccsscsssscssc"
     inkscape:connector-curvature="0"
     id="rect2590-7-3-5"
     d="m 118.36475,8.186586 87.29319,-0.154398 -0.0579,21.210098 c -0.0222,8.12082 5.71193,13.393334 13.8296,13.166429 l 20.62568,-0.576527 -0.23315,121.467762 c -0.0156,8.12084 -6.53772,14.65857 -14.65857,14.65857 H 118.36475 c -8.12084,0 -14.64895,-6.53773 -14.65856,-14.65857 L 103.4575,62.400864 103.5404,23.176737 C 103.5576,15.05591 110.24392,8.20095 118.36476,8.186586 Z"
     style="opacity:1;fill:#ffffff;fill-opacity:1;fill-rule:nonzero;stroke:none;stroke-width:1.88976383;stroke-linecap:round;stroke-linejoin:round;stroke-miterlimit:4;stroke-dasharray:none;stroke-dashoffset:0;stroke-opacity:1" /><path
     class="st0"
     d="m 239.93975,41.037421 h -20.1 c -7.6,0 -13.8,-6.2 -13.8,-13.8 v -20"
     id="path2438-6-4"
     inkscape:connector-curvature="0"
     style="fill:#5f7993" /><path
     sodipodi:nodetypes="csscc"
     class="st0"
     d="m 231.6422,41.297714 -11.64456,-0.165793 c -7.59923,-0.108196 -14.61024,-6.243316 -13.8,-13.800003 l 0.82896,-7.731324 c 4.06314,10.585475 11.28986,18.60995 24.6156,21.69712 z"
     id="path2438-3-7-7"
     inkscape:connector-curvature="0"
     style="fill:#405162" /><path
     d="m 122.845,40.232179 h 44.2 c 0.5,0 1,-0.4 1,-1 0,-0.5 -0.4,-1 -1,-1 h -44.2 c -0.5,0 -0.99999,0.4 -0.99999,1 0,0.6 0.49999,1 0.99999,1 z"
     id="path2446-5-6"
     inkscape:connector-curvature="0" /><path
     d="m 122.845,60.732179 h 22.6 c 0.5,0 1,-0.4 1,-1 0,-0.5 -0.4,-1 -1,-1 h -22.6 c -0.5,0 -0.99999,0.4 -0.99999,1 0,0.6 0.49999,1 0.99999,1 z"
     id="path2452-3-5"
     inkscape:connector-curvature="0" /><path
     d="m 144.97782,139.53217 h -22.6 c -0.5,0 -0.99999,0.4 -0.99999,1 0,0.6 0.39999,1 0.99999,1 h 22.6 c 0.5,0 1,-0.4 1,-1 0,-0.6 -0.5,-1 -1,-1 z"
     id="path2454-5-6"
     inkscape:connector-curvature="0" /><path
     d="m 192.17782,139.53217 h -35.3 c -0.5,0 -1,0.4 -1,1 0,0.6 0.4,1 1,1 h 35.3 c 0.5,0 1,-0.4 1,-1 0,-0.6 -0.5,-1 -1,-1 z"
     id="path2456-6-9"
     inkscape:connector-curvature="0" /><path
     d="m 221.65797,139.53217 h -15.1 c -0.5,0 -1,0.4 -1,1 0,0.6 0.4,1 1,1 h 15.1 c 0.5,0 1,-0.4 1,-1 0,-0.6 -0.5,-1 -1,-1 z"
     id="path2458-2-3"
     inkscape:connector-curvature="0" /><path
     d="m 195.745,58.732179 h -38.7 c -0.5,0 -1,0.4 -1,1 0,0.5 0.4,1 1,1 h 37.7 c 0.3,-0.6 0.6,-1.3 1,-2 z"
     id="path2512-9-7"
     inkscape:connector-curvature="0" /><path
     sodipodi:nodetypes="cssccsscccccccssssc"
     inkscape:connector-curvature="0"
     id="rect2590-1-4"
     d="m 103.83931,49.669007 0.0829,-27.287037 c 0.0247,-8.120808 6.70352,-14.975787 14.82435,-14.990151 v 0 l 87.29319,-0.154398 -0.0579,21.210098 c -0.0222,8.12082 5.71193,13.393334 13.8296,13.166429 l 20.62568,-0.576527 -0.11658,60.733879 -0.0291,10.37547 m -0.16579,9.78178 0.13669,6.39645 m 0,7.95806 -0.0291,11.03865 -0.0291,15.18347 c -0.0156,8.12084 -6.53772,14.65857 -14.65857,14.65857 H 118.74656 c -8.12085,0 -14.64896,-6.53773 -14.65857,-14.65857 L 103.83931,61.606097"
     style="opacity:1;fill:none;fill-opacity:1;fill-rule:nonzero;stroke:#000000;stroke-width:1.88976383;stroke-linecap:round;stroke-linejoin:round;stroke-miterlimit:4;stroke-dasharray:none;stroke-dashoffset:0;stroke-opacity:1" /><path
     inkscape:connector-curvature="0"
     id="path2595-2-5"
     d="m 206.03975,7.237421 c 34.39738,33.8 34.39738,33.8 34.39738,33.8 v 0 0"
     style="fill:none;stroke:#000000;stroke-width:1.88976383;stroke-linecap:butt;stroke-linejoin:miter;stroke-miterlimit:4;stroke-dasharray:none;stroke-opacity:1" /><path
     d="m 158.36542,125.10346 a 23.384254,23.384254 0 0 1 -13.6369,-18.34745 l 23.19157,-2.99573 z"
     sodipodi:end="3.0131306"
     sodipodi:start="1.9917095"
     sodipodi:ry="23.384254"
     sodipodi:rx="23.384254"
     sodipodi:cy="103.76028"
     sodipodi:cx="167.92009"
     sodipodi:type="arc"
     id="path1968-6-0-6-2"
     style="opacity:1;fill:#17b5c8;fill-opacity:1;fill-rule:nonzero;stroke:#17b5c8;stroke-width:2.13543296;stroke-linecap:square;stroke-linejoin:miter;stroke-miterlimit:4;stroke-dasharray:none;stroke-dashoffset:0;stroke-opacity:1" /><path
     d="m 159.45721,81.961123 a 23.384254,23.384254 0 0 1 25.01749,5.283455 23.384254,23.384254 0 0 1 5.22457,25.029842 l -21.77918,-8.51414 z"
     sodipodi:end="0.37266357"
     sodipodi:start="4.3420785"
     sodipodi:ry="23.384254"
     sodipodi:rx="23.384254"
     sodipodi:cy="103.76028"
     sodipodi:cx="167.92009"
     sodipodi:type="arc"
     id="path1968-6-5"
     style="opacity:1;fill:#5f7993;fill-opacity:1;fill-rule:nonzero;stroke:#5f7993;stroke-width:2.13543296;stroke-linecap:square;stroke-linejoin:miter;stroke-miterlimit:4;stroke-dasharray:none;stroke-dashoffset:0;stroke-opacity:1" /><path
     d="m 144.58466,105.27066 a 23.384254,23.384254 0 0 1 14.88354,-23.3138 l 8.45189,21.80342 z"
     sodipodi:end="4.3425826"
     sodipodi:start="3.0769579"
     sodipodi:ry="23.384254"
     sodipodi:rx="23.384254"
     sodipodi:cy="103.76028"
     sodipodi:cx="167.92009"
     sodipodi:type="arc"
     id="path1968-4"
     style="opacity:1;fill:none;fill-opacity:1;fill-rule:nonzero;stroke:#a6d100;stroke-width:2.13543296;stroke-linecap:square;stroke-linejoin:miter;stroke-miterlimit:4;stroke-dasharray:none;stroke-dashoffset:0;stroke-opacity:1" /><path
     d="m 189.13844,113.58905 a 23.384254,23.384254 0 0 1 -29.42782,12.06707 l 8.20947,-21.89584 z"
     sodipodi:end="1.9295081"
     sodipodi:start="0.43379347"
     sodipodi:ry="23.384254"
     sodipodi:rx="23.384254"
     sodipodi:cy="103.76028"
     sodipodi:cx="167.92009"
     sodipodi:type="arc"
     id="path1968-6-0-7"
     style="opacity:1;fill:#a6d100;fill-opacity:1;fill-rule:nonzero;stroke:#a6d100;stroke-width:2.13543296;stroke-linecap:square;stroke-linejoin:miter;stroke-miterlimit:4;stroke-dasharray:none;stroke-dashoffset:0;stroke-opacity:1" /><path
     d="m 144.97782,146.1264 h -22.6 c -0.5,0 -0.99999,0.4 -0.99999,1 0,0.6 0.39999,1 0.99999,1 h 22.6 c 0.5,0 1,-0.4 1,-1 0,-0.6 -0.5,-1 -1,-1 z"
     id="path2454-5-6-0"
     inkscape:connector-curvature="0" /><path
     d="m 192.17782,146.1264 h -35.3 c -0.5,0 -1,0.4 -1,1 0,0.6 0.4,1 1,1 h 35.3 c 0.5,0 1,-0.4 1,-1 0,-0.6 -0.5,-1 -1,-1 z"
     id="path2456-6-9-7"
     inkscape:connector-curvature="0" /><path
     d="m 221.65797,146.1264 h -15.1 c -0.5,0 -1,0.4 -1,1 0,0.6 0.4,1 1,1 h 15.1 c 0.5,0 1,-0.4 1,-1 0,-0.6 -0.5,-1 -1,-1 z"
     id="path2458-2-3-8"
     inkscape:connector-curvature="0" /><path
     d="m 144.97782,152.72063 h -22.6 c -0.5,0 -0.99999,0.4 -0.99999,1 0,0.6 0.39999,1 0.99999,1 h 22.6 c 0.5,0 1,-0.4 1,-1 0,-0.6 -0.5,-1 -1,-1 z"
     id="path2454-5-6-6"
     inkscape:connector-curvature="0" /><path
     d="m 192.17782,152.72063 h -35.3 c -0.5,0 -1,0.4 -1,1 0,0.6 0.4,1 1,1 h 35.3 c 0.5,0 1,-0.4 1,-1 0,-0.6 -0.5,-1 -1,-1 z"
     id="path2456-6-9-8"
     inkscape:connector-curvature="0" /><path
     d="m 221.65797,152.72063 h -15.1 c -0.5,0 -1,0.4 -1,1 0,0.6 0.4,1 1,1 h 15.1 c 0.5,0 1,-0.4 1,-1 0,-0.6 -0.5,-1 -1,-1 z"
     id="path2458-2-3-84"
     inkscape:connector-curvature="0" /><path
     d="m 144.97782,159.31486 h -22.6 c -0.5,0 -0.99999,0.4 -0.99999,1 0,0.6 0.39999,1 0.99999,1 h 22.6 c 0.5,0 1,-0.4 1,-1 0,-0.6 -0.5,-1 -1,-1 z"
     id="path2454-5-6-3"
     inkscape:connector-curvature="0" /><path
     d="m 192.17782,159.31486 h -35.3 c -0.5,0 -1,0.4 -1,1 0,0.6 0.4,1 1,1 h 35.3 c 0.5,0 1,-0.4 1,-1 0,-0.6 -0.5,-1 -1,-1 z"
     id="path2456-6-9-1"
     inkscape:connector-curvature="0" /><path
     d="m 221.65797,159.31486 h -15.1 c -0.5,0 -1,0.4 -1,1 0,0.6 0.4,1 1,1 h 15.1 c 0.5,0 1,-0.4 1,-1 0,-0.6 -0.5,-1 -1,-1 z"
     id="path2458-2-3-4"
     inkscape:connector-curvature="0" /><path
     d="m 144.97782,165.90909 h -22.6 c -0.5,0 -0.99999,0.4 -0.99999,1 0,0.6 0.39999,1 0.99999,1 h 22.6 c 0.5,0 1,-0.4 1,-1 0,-0.6 -0.5,-1 -1,-1 z"
     id="path2454-5-6-9"
     inkscape:connector-curvature="0" /><path
     d="m 192.17782,165.90909 h -35.3 c -0.5,0 -1,0.4 -1,1 0,0.6 0.4,1 1,1 h 35.3 c 0.5,0 1,-0.4 1,-1 0,-0.6 -0.5,-1 -1,-1 z"
     id="path2456-6-9-2"
     inkscape:connector-curvature="0" /><path
     d="m 221.65797,165.90909 h -15.1 c -0.5,0 -1,0.4 -1,1 0,0.6 0.4,1 1,1 h 15.1 c 0.5,0 1,-0.4 1,-1 0,-0.6 -0.5,-1 -1,-1 z"
     id="path2458-2-3-0"
     inkscape:connector-curvature="0" /></g></svg>